<svg xmlns="http://www.w3.org/2000/svg" width="512" height="512" fill="#FFFFFF" viewBox="0 0 16 16">
  <path d="M6.5 0A1.5 1.5 0 0 0 5 1.5v.5H3.5A1.5 1.5 0 0 0 2 3.5v11A1.5 1.5 0 0 0 3.5 16h9a1.5 1.5 0 0 0 1.5-1.5v-11A1.5 1.5 0 0 0 12.5 2H11v-.5A1.5 1.5 0 0 0 9.5 0zM6 1.5A.5.5 0 0 1 6.5 1h3a.5.5 0 0 1 .5.5v.5H6zM4.5 13a.5.5 0 0 1-.5-.5v-1A.5.5 0 0 1 4.5 11h1a.5.5 0 0 1 .5.5v1a.5.5 0 0 1-.5.5zm3 0a.5.5 0 0 1-.5-.5v-5A.5.5 0 0 1 7.5 7h1a.5.5 0 0 1 .5.5v5a.5.5 0 0 1-.5.5zm3 0a.5.5 0 0 1-.5-.5v-3a.5.5 0 0 1 .5-.5h1a.5.5 0 0 1 .5.5v3a.5.5 0 0 1-.5.5z"/>
</svg>
